<?xml version="1.0" encoding="utf-8"?><svg  xmlns="http://www.w3.org/2000/svg" xmlns:xlink="http://www.w3.org/1999/xlink"><style>:root>svg{display:none}:root>svg:target{display:block}</style><svg fill="none" viewBox="0 0 25 25" id="arrow" xmlns="http://www.w3.org/2000/svg"><path d="M16.38 9.79l-3.88 3.88-3.88-3.88a.996.996 0 10-1.41 1.41l4.59 4.59c.39.39 1.02.39 1.41 0l4.59-4.59a.996.996 0 000-1.41c-.39-.38-1.03-.39-1.42 0z" fill="currentColor"/></svg><svg fill="none" viewBox="0 0 23 18" id="arrow-right" xmlns="http://www.w3.org/2000/svg"><path d="M17.614 10.406l-5.034 5.049 1.982 1.982L23 9 14.562.562 12.58 2.546l5.034 5.049H.5v2.812h17.114z" fill="#03283C"/></svg><svg viewBox="0 0 25 24" fill="none" id="chevron-left" xmlns="http://www.w3.org/2000/svg"><path d="M14.793 19.707a1 1 0 001.414-1.414l-1.414 1.414zM8.5 12l-.707-.707a1 1 0 000 1.414L8.5 12zm7.707-6.293a1 1 0 00-1.414-1.414l1.414 1.414zm0 12.586l-7-7-1.414 1.414 7 7 1.414-1.414zm-7-5.586l7-7-1.414-1.414-7 7 1.414 1.414z" fill="#010D14"/></svg><svg fill="none" viewBox="0 0 24 24" id="copyright" xmlns="http://www.w3.org/2000/svg"><path d="M10.08 10.86c.05-.33.16-.62.3-.87.14-.25.34-.46.59-.62.24-.15.54-.22.91-.23.23.01.44.05.63.13.2.09.38.21.52.36s.25.33.34.53c.09.2.13.42.14.64h1.79c-.02-.47-.11-.9-.28-1.29-.17-.39-.4-.73-.7-1.01-.3-.28-.66-.5-1.08-.66-.42-.16-.88-.23-1.39-.23-.65 0-1.22.11-1.7.34-.48.23-.88.53-1.2.92-.32.39-.56.84-.71 1.36-.15.52-.24 1.06-.24 1.64v.27c0 .58.08 1.12.23 1.64.15.52.39.97.71 1.35.32.38.72.69 1.2.91.48.22 1.05.34 1.7.34.47 0 .91-.08 1.32-.23.41-.15.77-.36 1.08-.63.31-.27.56-.58.74-.94.18-.36.29-.74.3-1.15h-1.79c-.01.21-.06.4-.15.58-.09.18-.21.33-.36.46s-.32.23-.52.3c-.19.07-.39.09-.6.1-.36-.01-.66-.08-.89-.23a1.75 1.75 0 01-.59-.62c-.14-.25-.25-.55-.3-.88a6.74 6.74 0 01-.08-1v-.27c0-.35.03-.68.08-1.01zM12 2C6.48 2 2 6.48 2 12s4.48 10 10 10 10-4.48 10-10S17.52 2 12 2zm0 18c-4.41 0-8-3.59-8-8s3.59-8 8-8 8 3.59 8 8-3.59 8-8 8z" fill="#D3DAD7"/></svg><svg fill="none" viewBox="0 0 24 24" id="facebook" xmlns="http://www.w3.org/2000/svg"><path d="M24 12c0-6.627-5.373-12-12-12S0 5.373 0 12c0 5.99 4.388 10.954 10.125 11.854V15.47H7.078V12h3.047V9.356c0-3.007 1.792-4.668 4.533-4.668 1.312 0 2.686.234 2.686.234v2.953H15.83c-1.491 0-1.956.925-1.956 1.875V12h3.328l-.532 3.469h-2.796v8.385C19.612 22.954 24 17.99 24 12z" fill="#D3DAD7"/></svg><svg fill="none" viewBox="0 0 24 24" id="linkedin" xmlns="http://www.w3.org/2000/svg"><path d="M22.223 0H1.772C.792 0 0 .773 0 1.73v20.536C0 23.222.792 24 1.772 24h20.451c.98 0 1.777-.778 1.777-1.73V1.73C24 .773 23.203 0 22.223 0zM7.12 20.452H3.558V8.995H7.12v11.457zM5.34 7.434a2.064 2.064 0 110-4.125 2.063 2.063 0 010 4.125zm15.112 13.018h-3.558v-5.57c0-1.326-.024-3.037-1.852-3.037-1.851 0-2.133 1.449-2.133 2.944v5.663H9.356V8.995h3.413v1.566h.047c.473-.9 1.636-1.852 3.365-1.852 3.605 0 4.27 2.372 4.27 5.457v6.286z" fill="#D3DAD7"/></svg><svg fill="none" viewBox="0 0 24 24" id="twitter" xmlns="http://www.w3.org/2000/svg"><g clip-path="url(#gclip0_179_108)"><path d="M7.55 21.75c9.055 0 14.008-7.503 14.008-14.008 0-.211-.004-.427-.014-.638A10 10 0 0024 4.555c-.898.4-1.85.66-2.826.774a4.95 4.95 0 002.165-2.723A9.897 9.897 0 0120.213 3.8a4.93 4.93 0 00-8.394 4.49A13.985 13.985 0 011.673 3.15a4.93 4.93 0 001.523 6.57 4.93 4.93 0 01-2.23-.614v.06a4.922 4.922 0 003.95 4.829 4.895 4.895 0 01-2.221.084 4.934 4.934 0 004.597 3.422A9.875 9.875 0 010 19.538a13.969 13.969 0 007.55 2.212z" fill="#D3DAD7"/></g><defs><clipPath id="gclip0_179_108"><path fill="#fff" d="M0 0h24v24H0z"/></clipPath></defs></svg><svg fill="none" viewBox="0 0 24 24" id="youtube" xmlns="http://www.w3.org/2000/svg"><path d="M23.76 7.2s-.233-1.655-.955-2.381c-.914-.956-1.936-.961-2.405-1.017-3.356-.244-8.395-.244-8.395-.244h-.01s-5.039 0-8.395.244c-.469.056-1.49.06-2.405 1.017C.473 5.545.244 7.2.244 7.2S0 9.145 0 11.086v1.819c0 1.94.24 3.886.24 3.886s.233 1.654.95 2.38c.915.957 2.115.924 2.65 1.027 1.92.183 8.16.24 8.16.24s5.044-.01 8.4-.249c.469-.056 1.49-.06 2.405-1.017.722-.727.956-2.381.956-2.381S24 14.85 24 12.905v-1.819c0-1.94-.24-3.886-.24-3.886zM9.52 15.113V8.367l6.483 3.385-6.483 3.36z" fill="#D3DAD7"/></svg></svg>